<svg width="100" height="100" viewBox="0 0 100 100" xmlns="http://www.w3.org/2000/svg"><style>.bg{fill:#EEF1F5}.fg{fill:#17181A}.dot{fill:#1E6E4E}@media (prefers-color-scheme:dark){.bg{fill:#121417}.fg{fill:#EDEBE6}.dot{fill:#4CC38A}}</style><rect class="bg" width="100" height="100" rx="20"/><mask id="satori_om-id"><rect x="0" y="0" width="100" height="100" fill="#fff"/></mask><mask id="satori_om-id-0"><rect x="20" y="6" width="60" height="88" fill="#fff"/></mask><mask id="satori_om-id-0-0"><rect x="20" y="6" width="36" height="88" fill="#fff"/></mask><g  ><path class="fg" d="M21.1 76L31.1 14.4L44.2 14.4L54.2 76L44.6 76L42.8 63.8L42.8 63.9L31.8 63.9L30.0 76L21.1 76ZM32.9 55.6L41.6 55.6L37.3 25.1L37.2 25.1L32.9 55.6Z "/></g><mask id="satori_om-id-0-1"><rect x="63" y="73" width="17" height="17" fill="#fff"/></mask><path x="63" y="73" width="17" height="17" class="dot" d="M71.5,73 h0 a8.5,8.5 0 0 1 8.5,8.5 v0 a8.5,8.5 0 0 1 -8.5,8.5 h0 a8.5,8.5 0 0 1 -8.5,-8.5 v0 a8.5,8.5 0 0 1 8.5,-8.5"/></svg>