<svg width="100" height="100" viewBox="0 0 100 100" xmlns="http://www.w3.org/2000/svg"><style>.bg{fill:#EEF1F5}.fg{fill:#17181A}.dot{fill:#1E6E4E}@media (prefers-color-scheme:dark){.bg{fill:#121417}.fg{fill:#EDEBE6}.dot{fill:#4CC38A}}</style><rect class="bg" width="100" height="100" rx="20"/><mask id="satori_om-id"><rect x="0" y="0" width="100" height="100" fill="#fff"/></mask><mask id="satori_om-id-0"><rect x="11" y="13" width="78" height="74" fill="#fff"/></mask><mask id="satori_om-id-0-0"><rect x="11" y="13" width="54" height="74" fill="#fff"/></mask><g  ><path class="fg" d="M22.8 75L11.4 75L31.0 24.2L44.6 24.2L64.1 75L52.2 75L48.6 65.0L26.5 65.0L22.8 75ZM34.2 43.6L29.6 56.1L45.4 56.1L40.9 43.6Q40.6 42.8 40.2 41.7Q39.8 40.5 39.3 39.1Q38.9 37.7 38.5 36.3Q38.1 35.0 37.7 33.9L37.7 33.9L37.3 33.9Q36.9 35.3 36.3 37.1Q35.7 39.0 35.1 40.8Q34.5 42.5 34.2 43.6L34.2 43.6Z "/></g><mask id="satori_om-id-0-1"><rect x="72" y="66" width="17" height="17" fill="#fff"/></mask><path x="72" y="66" width="17" height="17" class="dot" d="M80.5,66 h0 a8.5,8.5 0 0 1 8.5,8.5 v0 a8.5,8.5 0 0 1 -8.5,8.5 h0 a8.5,8.5 0 0 1 -8.5,-8.5 v0 a8.5,8.5 0 0 1 8.5,-8.5"/></svg>